<mxfile host="Electron" agent="Mozilla/5.0 (Macintosh; Intel Mac OS X 10_15_7) AppleWebKit/537.36 (KHTML, like Gecko) draw.io/24.7.17 Chrome/128.0.6613.36 Electron/32.0.1 Safari/537.36" version="24.7.17">
  <diagram name="Page-1" id="lJEVJBOzmuLqE4fKQz00">
    <mxGraphModel dx="1863" dy="1214" grid="1" gridSize="10" guides="1" tooltips="1" connect="1" arrows="1" fold="1" page="1" pageScale="1" pageWidth="1169" pageHeight="827" math="0" shadow="0">
      <root>
        <mxCell id="0" />
        <mxCell id="1" parent="0" />
        <mxCell id="ck57TvYoqUKneYjGUyxw-1" value="AWS Account" style="points=[[0,0],[0.25,0],[0.5,0],[0.75,0],[1,0],[1,0.25],[1,0.5],[1,0.75],[1,1],[0.75,1],[0.5,1],[0.25,1],[0,1],[0,0.75],[0,0.5],[0,0.25]];outlineConnect=0;gradientColor=none;html=1;whiteSpace=wrap;fontSize=12;fontStyle=0;container=1;pointerEvents=0;collapsible=0;recursiveResize=0;shape=mxgraph.aws4.group;grIcon=mxgraph.aws4.group_account;strokeColor=#CD2264;fillColor=none;verticalAlign=top;align=left;spacingLeft=30;fontColor=#CD2264;dashed=0;" vertex="1" parent="1">
          <mxGeometry x="40" y="40" width="540" height="640" as="geometry" />
        </mxCell>
        <mxCell id="ck57TvYoqUKneYjGUyxw-2" value="Export Function" style="sketch=0;points=[[0,0,0],[0.25,0,0],[0.5,0,0],[0.75,0,0],[1,0,0],[0,1,0],[0.25,1,0],[0.5,1,0],[0.75,1,0],[1,1,0],[0,0.25,0],[0,0.5,0],[0,0.75,0],[1,0.25,0],[1,0.5,0],[1,0.75,0]];outlineConnect=0;fontColor=#232F3E;fillColor=#ED7100;strokeColor=#ffffff;dashed=0;verticalLabelPosition=bottom;verticalAlign=top;align=center;html=1;fontSize=12;fontStyle=0;aspect=fixed;shape=mxgraph.aws4.resourceIcon;resIcon=mxgraph.aws4.lambda;" vertex="1" parent="ck57TvYoqUKneYjGUyxw-1">
          <mxGeometry x="370" y="277" width="64" height="64" as="geometry" />
        </mxCell>
        <mxCell id="ck57TvYoqUKneYjGUyxw-4" value="Cost And Usage" style="sketch=0;points=[[0,0,0],[0.25,0,0],[0.5,0,0],[0.75,0,0],[1,0,0],[0,1,0],[0.25,1,0],[0.5,1,0],[0.75,1,0],[1,1,0],[0,0.25,0],[0,0.5,0],[0,0.75,0],[1,0.25,0],[1,0.5,0],[1,0.75,0]];outlineConnect=0;fontColor=#232F3E;fillColor=#7AA116;strokeColor=#ffffff;dashed=0;verticalLabelPosition=bottom;verticalAlign=top;align=center;html=1;fontSize=12;fontStyle=0;aspect=fixed;shape=mxgraph.aws4.resourceIcon;resIcon=mxgraph.aws4.cost_and_usage_report;" vertex="1" parent="ck57TvYoqUKneYjGUyxw-1">
          <mxGeometry x="370" y="80" width="64" height="64" as="geometry" />
        </mxCell>
        <mxCell id="ck57TvYoqUKneYjGUyxw-7" style="edgeStyle=orthogonalEdgeStyle;rounded=0;orthogonalLoop=1;jettySize=auto;html=1;" edge="1" parent="ck57TvYoqUKneYjGUyxw-1" source="ck57TvYoqUKneYjGUyxw-6" target="ck57TvYoqUKneYjGUyxw-2">
          <mxGeometry relative="1" as="geometry" />
        </mxCell>
        <mxCell id="ck57TvYoqUKneYjGUyxw-6" value="Monthly Schedule" style="sketch=0;points=[[0,0,0],[0.25,0,0],[0.5,0,0],[0.75,0,0],[1,0,0],[0,1,0],[0.25,1,0],[0.5,1,0],[0.75,1,0],[1,1,0],[0,0.25,0],[0,0.5,0],[0,0.75,0],[1,0.25,0],[1,0.5,0],[1,0.75,0]];outlineConnect=0;fontColor=#232F3E;fillColor=#E7157B;strokeColor=#ffffff;dashed=0;verticalLabelPosition=bottom;verticalAlign=top;align=center;html=1;fontSize=12;fontStyle=0;aspect=fixed;shape=mxgraph.aws4.resourceIcon;resIcon=mxgraph.aws4.eventbridge;" vertex="1" parent="ck57TvYoqUKneYjGUyxw-1">
          <mxGeometry x="80" y="277" width="64" height="64" as="geometry" />
        </mxCell>
        <mxCell id="ck57TvYoqUKneYjGUyxw-8" style="edgeStyle=orthogonalEdgeStyle;rounded=0;orthogonalLoop=1;jettySize=auto;html=1;entryX=0.5;entryY=0;entryDx=0;entryDy=0;entryPerimeter=0;" edge="1" parent="ck57TvYoqUKneYjGUyxw-1" source="ck57TvYoqUKneYjGUyxw-4" target="ck57TvYoqUKneYjGUyxw-2">
          <mxGeometry relative="1" as="geometry" />
        </mxCell>
        <mxCell id="ck57TvYoqUKneYjGUyxw-11" style="edgeStyle=orthogonalEdgeStyle;rounded=0;orthogonalLoop=1;jettySize=auto;html=1;" edge="1" parent="ck57TvYoqUKneYjGUyxw-1" source="ck57TvYoqUKneYjGUyxw-9" target="ck57TvYoqUKneYjGUyxw-10">
          <mxGeometry relative="1" as="geometry" />
        </mxCell>
        <mxCell id="ck57TvYoqUKneYjGUyxw-19" style="edgeStyle=orthogonalEdgeStyle;rounded=0;orthogonalLoop=1;jettySize=auto;html=1;" edge="1" parent="ck57TvYoqUKneYjGUyxw-1" source="ck57TvYoqUKneYjGUyxw-9" target="ck57TvYoqUKneYjGUyxw-15">
          <mxGeometry relative="1" as="geometry" />
        </mxCell>
        <mxCell id="ck57TvYoqUKneYjGUyxw-9" value="IAM" style="sketch=0;points=[[0,0,0],[0.25,0,0],[0.5,0,0],[0.75,0,0],[1,0,0],[0,1,0],[0.25,1,0],[0.5,1,0],[0.75,1,0],[1,1,0],[0,0.25,0],[0,0.5,0],[0,0.75,0],[1,0.25,0],[1,0.5,0],[1,0.75,0]];outlineConnect=0;fontColor=#232F3E;fillColor=#DD344C;strokeColor=#ffffff;dashed=0;verticalLabelPosition=bottom;verticalAlign=top;align=center;html=1;fontSize=12;fontStyle=0;aspect=fixed;shape=mxgraph.aws4.resourceIcon;resIcon=mxgraph.aws4.identity_and_access_management;" vertex="1" parent="ck57TvYoqUKneYjGUyxw-1">
          <mxGeometry x="230" y="400" width="64" height="64" as="geometry" />
        </mxCell>
        <mxCell id="ck57TvYoqUKneYjGUyxw-12" style="edgeStyle=orthogonalEdgeStyle;rounded=0;orthogonalLoop=1;jettySize=auto;html=1;" edge="1" parent="ck57TvYoqUKneYjGUyxw-1" source="ck57TvYoqUKneYjGUyxw-10" target="ck57TvYoqUKneYjGUyxw-6">
          <mxGeometry relative="1" as="geometry" />
        </mxCell>
        <mxCell id="ck57TvYoqUKneYjGUyxw-14" style="edgeStyle=orthogonalEdgeStyle;rounded=0;orthogonalLoop=1;jettySize=auto;html=1;" edge="1" parent="ck57TvYoqUKneYjGUyxw-1" source="ck57TvYoqUKneYjGUyxw-10" target="ck57TvYoqUKneYjGUyxw-13">
          <mxGeometry relative="1" as="geometry" />
        </mxCell>
        <mxCell id="ck57TvYoqUKneYjGUyxw-10" value="Role" style="sketch=0;outlineConnect=0;fontColor=#232F3E;gradientColor=none;fillColor=#DD344C;strokeColor=none;dashed=0;verticalLabelPosition=bottom;verticalAlign=top;align=center;html=1;fontSize=12;fontStyle=0;aspect=fixed;pointerEvents=1;shape=mxgraph.aws4.role;" vertex="1" parent="ck57TvYoqUKneYjGUyxw-1">
          <mxGeometry x="73" y="410" width="78" height="44" as="geometry" />
        </mxCell>
        <mxCell id="ck57TvYoqUKneYjGUyxw-13" value="Policy" style="sketch=0;outlineConnect=0;fontColor=#232F3E;gradientColor=none;fillColor=#DD344C;strokeColor=none;dashed=0;verticalLabelPosition=bottom;verticalAlign=top;align=center;html=1;fontSize=12;fontStyle=0;aspect=fixed;pointerEvents=1;shape=mxgraph.aws4.permissions;" vertex="1" parent="ck57TvYoqUKneYjGUyxw-1">
          <mxGeometry x="86.57" y="520" width="50.87" height="64" as="geometry" />
        </mxCell>
        <mxCell id="ck57TvYoqUKneYjGUyxw-17" value="" style="edgeStyle=orthogonalEdgeStyle;rounded=0;orthogonalLoop=1;jettySize=auto;html=1;" edge="1" parent="ck57TvYoqUKneYjGUyxw-1" source="ck57TvYoqUKneYjGUyxw-15" target="ck57TvYoqUKneYjGUyxw-2">
          <mxGeometry relative="1" as="geometry" />
        </mxCell>
        <mxCell id="ck57TvYoqUKneYjGUyxw-18" style="edgeStyle=orthogonalEdgeStyle;rounded=0;orthogonalLoop=1;jettySize=auto;html=1;" edge="1" parent="ck57TvYoqUKneYjGUyxw-1" source="ck57TvYoqUKneYjGUyxw-15" target="ck57TvYoqUKneYjGUyxw-16">
          <mxGeometry relative="1" as="geometry" />
        </mxCell>
        <mxCell id="ck57TvYoqUKneYjGUyxw-15" value="Role" style="sketch=0;outlineConnect=0;fontColor=#232F3E;gradientColor=none;fillColor=#DD344C;strokeColor=none;dashed=0;verticalLabelPosition=bottom;verticalAlign=top;align=center;html=1;fontSize=12;fontStyle=0;aspect=fixed;pointerEvents=1;shape=mxgraph.aws4.role;" vertex="1" parent="ck57TvYoqUKneYjGUyxw-1">
          <mxGeometry x="363" y="410" width="78" height="44" as="geometry" />
        </mxCell>
        <mxCell id="ck57TvYoqUKneYjGUyxw-16" value="Policy" style="sketch=0;outlineConnect=0;fontColor=#232F3E;gradientColor=none;fillColor=#DD344C;strokeColor=none;dashed=0;verticalLabelPosition=bottom;verticalAlign=top;align=center;html=1;fontSize=12;fontStyle=0;aspect=fixed;pointerEvents=1;shape=mxgraph.aws4.permissions;" vertex="1" parent="ck57TvYoqUKneYjGUyxw-1">
          <mxGeometry x="376.56" y="520" width="50.87" height="64" as="geometry" />
        </mxCell>
        <mxCell id="ck57TvYoqUKneYjGUyxw-20" value="Tempo API" style="ellipse;shape=cloud;whiteSpace=wrap;html=1;align=center;" vertex="1" parent="1">
          <mxGeometry x="731" y="316" width="100" height="60" as="geometry" />
        </mxCell>
        <mxCell id="ck57TvYoqUKneYjGUyxw-21" style="edgeStyle=orthogonalEdgeStyle;rounded=0;orthogonalLoop=1;jettySize=auto;html=1;entryX=0.16;entryY=0.55;entryDx=0;entryDy=0;entryPerimeter=0;" edge="1" parent="1" source="ck57TvYoqUKneYjGUyxw-2" target="ck57TvYoqUKneYjGUyxw-20">
          <mxGeometry relative="1" as="geometry" />
        </mxCell>
      </root>
    </mxGraphModel>
  </diagram>
</mxfile>
